<svg width="1398" height="950" viewBox="0 0 1398 950" fill="none" xmlns="http://www.w3.org/2000/svg">
<path d="M-136 49.6019H225.478V262.767H-136V49.6019Z" fill="#FFA53B"/>
<path d="M104.961 260.669H-16.7842V430.663C2.08338 437.318 23.6266 441.437 44.7388 441.437C65.847 441.437 86.1622 437.823 104.961 431.172V260.669Z" fill="#FFA53B"/>
<path d="M225.478 260.669H103.659V431.602C173.86 406.804 225.478 339.412 225.478 260.669Z" fill="#FFA53B"/>
<path d="M-136 0H225.478V51.411H-136V0Z" fill="#FFA53B"/>
<path d="M225.514 142.768H311.077C311.077 190.199 272.781 228.63 225.514 228.63C178.248 228.63 139.951 190.199 139.951 142.768H225.514Z" fill="#00C4CC"/>
<path d="M1335.07 172C1300.79 172 1273 199.783 1273 234.054C1273 268.325 1300.79 296.108 1335.07 296.108C1369.35 296.108 1397.14 268.325 1397.14 234.054C1397.14 199.783 1369.35 172 1335.07 172Z" fill="#1B48AB"/>
<path d="M1182.29 818.719H1312.58C1312.58 890.725 1254.26 949.072 1182.29 949.072C1110.31 949.072 1052 890.725 1052 818.719H1182.29Z" fill="#FF738E"/>
<path d="M1153.61 847.417L1240.61 775L1253.1 789.997L1166.1 862.414L1153.61 847.417Z" fill="#6422B8"/>
</svg>
