<svg width="1440" height="1024" viewBox="0 0 1440 1024" fill="none" xmlns="http://www.w3.org/2000/svg">
<path d="M1451.03 972.048L1105.34 979.963L1101.18 751.496L1446.87 743.581L1451.03 972.048Z" fill="#FFA53B"/>
<path d="M1328.32 565.726L1331.65 748.468L1446.91 745.83C1445.37 661.434 1395.94 590.772 1328.32 565.726Z" fill="#FFA53B"/>
<path d="M1216.47 751.106L1332.9 748.44L1329.58 566.242C1311.4 559.522 1290.72 555.58 1270.53 556.043C1250.34 556.505 1230.99 560.823 1213.14 568.363L1216.47 751.106Z" fill="#FFA53B"/>
<path d="M1101.22 753.744L1217.72 751.077L1214.38 567.873C1147.73 595.989 1099.68 669.349 1101.22 753.744Z" fill="#FFA53B"/>
<path d="M1452 1025.21L1106.31 1033.13L1105.31 978.024L1451 970.109L1452 1025.21Z" fill="#FFA53B"/>
<path d="M1103.49 880.109L1021.66 881.983C1020.73 831.147 1056.61 789.119 1101.81 788.084C1147.01 787.049 1184.39 827.4 1185.31 878.236L1103.49 880.109Z" fill="#00C4CC"/>
<path d="M59.3694 0C26.5809 0 0 29.7835 0 66.5227C0 103.262 26.5809 133.045 59.3694 133.045C92.1579 133.045 118.739 103.262 118.739 66.5227C118.739 29.7835 92.1579 0 59.3694 0Z" fill="#6422B8"/>
<path d="M184.576 719.214L183.988 858.883C115.113 858.518 59.5674 795.71 59.8925 718.554C60.2175 641.399 116.29 579.181 185.165 579.545L184.576 719.214Z" fill="#FF738E"/>
</svg>
