<svg width="1515" height="957" viewBox="0 0 1515 957" fill="none" xmlns="http://www.w3.org/2000/svg">
<path d="M305.967 130.902L305.351 261.189C233.346 260.849 175.275 202.26 175.615 130.287C175.955 58.3141 234.576 0.275485 306.582 0.615448L305.967 130.902Z" fill="#FFA53B"/>
<path d="M1456.85 745.602L1448.99 677C1417.8 680.575 1388.23 690.047 1361.22 705.548C1335.06 720.248 1312.25 739.71 1293.44 763.398C1274.62 787.085 1260.82 813.709 1252.43 842.52C1243.44 872.336 1240.9 903.283 1244.48 934.465L1313.08 926.601C1308.1 883.175 1320.28 840.357 1347.5 806.344C1374.47 772.128 1413.42 750.579 1456.85 745.602Z" fill="#00C4CC"/>
<path d="M1320.07 69C1285.79 69 1258 96.7829 1258 131.054C1258 165.325 1285.79 193.108 1320.07 193.108C1354.35 193.108 1382.14 165.325 1382.14 131.054C1382.14 96.7829 1354.35 69 1320.07 69Z" fill="#6422B8"/>
<rect x="108" y="788.5" width="437" height="78" rx="5" fill="black"/>
<path d="M124.568 813.892H128.131V823.5H130.562V813.892H134.125V811.864H124.568V813.892ZM138.074 818.455C138.08 817.33 138.767 816.67 139.756 816.67C140.739 816.67 141.318 817.301 141.312 818.375V823.5H143.733V817.943C143.739 815.898 142.534 814.659 140.716 814.659C139.392 814.659 138.506 815.284 138.108 816.312H138.006V811.864H135.653V823.5H138.074V818.455ZM145.638 823.5H148.058V814.773H145.638V823.5ZM146.854 813.648C147.575 813.648 148.166 813.097 148.166 812.42C148.166 811.75 147.575 811.199 146.854 811.199C146.138 811.199 145.547 811.75 145.547 812.42C145.547 813.097 146.138 813.648 146.854 813.648ZM157.259 817.261C157.043 815.653 155.747 814.659 153.543 814.659C151.31 814.659 149.838 815.693 149.844 817.375C149.838 818.682 150.662 819.528 152.366 819.869L153.878 820.17C154.639 820.324 154.986 820.602 154.997 821.04C154.986 821.557 154.423 821.926 153.577 821.926C152.713 821.926 152.139 821.557 151.991 820.847L149.611 820.972C149.838 822.642 151.259 823.67 153.571 823.67C155.832 823.67 157.452 822.517 157.457 820.795C157.452 819.534 156.628 818.778 154.935 818.432L153.355 818.114C152.543 817.938 152.241 817.659 152.247 817.239C152.241 816.716 152.832 816.375 153.582 816.375C154.423 816.375 154.923 816.835 155.043 817.398L157.259 817.261ZM162.685 823.5H165.105V814.773H162.685V823.5ZM163.901 813.648C164.622 813.648 165.213 813.097 165.213 812.42C165.213 811.75 164.622 811.199 163.901 811.199C163.185 811.199 162.594 811.75 162.594 812.42C162.594 813.097 163.185 813.648 163.901 813.648ZM174.305 817.261C174.089 815.653 172.794 814.659 170.589 814.659C168.357 814.659 166.885 815.693 166.891 817.375C166.885 818.682 167.709 819.528 169.413 819.869L170.925 820.17C171.686 820.324 172.033 820.602 172.044 821.04C172.033 821.557 171.47 821.926 170.624 821.926C169.76 821.926 169.186 821.557 169.038 820.847L166.658 820.972C166.885 822.642 168.305 823.67 170.618 823.67C172.879 823.67 174.499 822.517 174.504 820.795C174.499 819.534 173.675 818.778 171.982 818.432L170.402 818.114C169.589 817.938 169.288 817.659 169.294 817.239C169.288 816.716 169.879 816.375 170.629 816.375C171.47 816.375 171.97 816.835 172.089 817.398L174.305 817.261ZM181.226 826.773C183.027 826.773 183.982 825.852 184.476 824.443L187.868 814.784L185.305 814.773L183.482 821.182H183.391L181.584 814.773H179.038L182.169 823.75L182.027 824.119C181.709 824.938 181.101 824.977 180.249 824.716L179.703 826.523C180.05 826.67 180.612 826.773 181.226 826.773ZM192.753 823.67C195.401 823.67 197.048 821.858 197.048 819.17C197.048 816.466 195.401 814.659 192.753 814.659C190.105 814.659 188.457 816.466 188.457 819.17C188.457 821.858 190.105 823.67 192.753 823.67ZM192.764 821.795C191.543 821.795 190.918 820.676 190.918 819.153C190.918 817.631 191.543 816.506 192.764 816.506C193.963 816.506 194.588 817.631 194.588 819.153C194.588 820.676 193.963 821.795 192.764 821.795ZM204.219 819.784C204.224 820.955 203.423 821.568 202.554 821.568C201.639 821.568 201.048 820.926 201.043 819.898V814.773H198.622V820.33C198.628 822.369 199.821 823.614 201.577 823.614C202.889 823.614 203.832 822.938 204.224 821.915H204.315V823.5H206.639V814.773H204.219V819.784ZM208.575 823.5H210.996V818.562C210.996 817.489 211.78 816.75 212.848 816.75C213.183 816.75 213.643 816.807 213.871 816.881V814.733C213.655 814.682 213.354 814.648 213.109 814.648C212.132 814.648 211.331 815.216 211.013 816.295H210.922V814.773H208.575V823.5ZM222.803 823.67C224.962 823.67 226.416 822.619 226.757 821L224.518 820.852C224.274 821.517 223.649 821.864 222.842 821.864C221.632 821.864 220.865 821.062 220.865 819.761V819.756H226.808V819.091C226.808 816.125 225.013 814.659 222.706 814.659C220.138 814.659 218.473 816.483 218.473 819.176C218.473 821.943 220.115 823.67 222.803 823.67ZM220.865 818.256C220.916 817.261 221.672 816.466 222.746 816.466C223.797 816.466 224.524 817.216 224.53 818.256H220.865ZM228.388 823.5H230.808V818.261C230.808 817.295 231.422 816.653 232.229 816.653C233.024 816.653 233.558 817.199 233.558 818.057V823.5H235.905V818.17C235.905 817.267 236.422 816.653 237.303 816.653C238.075 816.653 238.655 817.136 238.655 818.108V823.5H241.07V817.631C241.07 815.739 239.945 814.659 238.32 814.659C237.041 814.659 236.047 815.312 235.689 816.312H235.598C235.32 815.301 234.428 814.659 233.229 814.659C232.053 814.659 231.161 815.284 230.797 816.312H230.695V814.773H228.388V823.5ZM246.925 823.67C249.572 823.67 251.22 821.858 251.22 819.17C251.22 816.466 249.572 814.659 246.925 814.659C244.277 814.659 242.629 816.466 242.629 819.17C242.629 821.858 244.277 823.67 246.925 823.67ZM246.936 821.795C245.714 821.795 245.089 820.676 245.089 819.153C245.089 817.631 245.714 816.506 246.936 816.506C248.135 816.506 248.76 817.631 248.76 819.153C248.76 820.676 248.135 821.795 246.936 821.795ZM257.436 814.773H255.794V812.682H253.374V814.773H252.18V816.591H253.374V821.136C253.362 822.847 254.527 823.693 256.283 823.619C256.908 823.597 257.351 823.472 257.595 823.392L257.214 821.591C257.095 821.614 256.839 821.67 256.612 821.67C256.129 821.67 255.794 821.489 255.794 820.818V816.591H257.436V814.773ZM259.013 823.5H261.433V814.773H259.013V823.5ZM260.229 813.648C260.95 813.648 261.541 813.097 261.541 812.42C261.541 811.75 260.95 811.199 260.229 811.199C259.513 811.199 258.922 811.75 258.922 812.42C258.922 813.097 259.513 813.648 260.229 813.648ZM267.315 823.67C269.963 823.67 271.611 821.858 271.611 819.17C271.611 816.466 269.963 814.659 267.315 814.659C264.668 814.659 263.02 816.466 263.02 819.17C263.02 821.858 264.668 823.67 267.315 823.67ZM267.327 821.795C266.105 821.795 265.48 820.676 265.48 819.153C265.48 817.631 266.105 816.506 267.327 816.506C268.526 816.506 269.151 817.631 269.151 819.153C269.151 820.676 268.526 821.795 267.327 821.795ZM275.605 818.455C275.611 817.33 276.281 816.67 277.259 816.67C278.23 816.67 278.815 817.307 278.81 818.375V823.5H281.23V817.943C281.23 815.909 280.037 814.659 278.219 814.659C276.923 814.659 275.986 815.295 275.594 816.312H275.491V814.773H273.185V823.5H275.605V818.455ZM286.841 823.5H289.261V814.773H286.841V823.5ZM288.057 813.648C288.778 813.648 289.369 813.097 289.369 812.42C289.369 811.75 288.778 811.199 288.057 811.199C287.341 811.199 286.75 811.75 286.75 812.42C286.75 813.097 287.341 813.648 288.057 813.648ZM293.621 818.455C293.626 817.33 294.297 816.67 295.274 816.67C296.246 816.67 296.831 817.307 296.825 818.375V823.5H299.246V817.943C299.246 815.909 298.053 814.659 296.234 814.659C294.939 814.659 294.001 815.295 293.609 816.312H293.507V814.773H291.2V823.5H293.621V818.455ZM304.369 823.642C305.778 823.642 306.511 822.83 306.847 822.102H306.949V823.5H309.335V811.864H306.92V816.239H306.847C306.523 815.528 305.824 814.659 304.364 814.659C302.449 814.659 300.83 816.148 300.83 819.148C300.83 822.068 302.381 823.642 304.369 823.642ZM305.136 821.716C303.949 821.716 303.301 820.659 303.301 819.136C303.301 817.625 303.938 816.585 305.136 816.585C306.312 816.585 306.972 817.58 306.972 819.136C306.972 820.693 306.301 821.716 305.136 821.716ZM315.303 823.67C317.462 823.67 318.916 822.619 319.257 821L317.018 820.852C316.774 821.517 316.149 821.864 315.342 821.864C314.132 821.864 313.365 821.062 313.365 819.761V819.756H319.308V819.091C319.308 816.125 317.513 814.659 315.206 814.659C312.638 814.659 310.973 816.483 310.973 819.176C310.973 821.943 312.615 823.67 315.303 823.67ZM313.365 818.256C313.416 817.261 314.172 816.466 315.246 816.466C316.297 816.466 317.024 817.216 317.03 818.256H313.365ZM322.77 814.773H320.27L322.77 819.136L320.179 823.5H322.679L324.372 820.483L326.094 823.5H328.565L325.969 819.136L328.497 814.773H326.014L324.372 817.824L322.77 814.773ZM332.827 811.864H330.298L330.526 820.011H332.605L332.827 811.864ZM331.565 823.648C332.293 823.648 332.923 823.04 332.929 822.284C332.923 821.54 332.293 820.932 331.565 820.932C330.815 820.932 330.196 821.54 330.202 822.284C330.196 823.04 330.815 823.648 331.565 823.648ZM341.331 811.864H338.871V823.5H341.331V811.864ZM347.952 814.773H346.31V812.682H343.889V814.773H342.696V816.591H343.889V821.136C343.878 822.847 345.043 823.693 346.798 823.619C347.423 823.597 347.866 823.472 348.111 823.392L347.73 821.591C347.611 821.614 347.355 821.67 347.128 821.67C346.645 821.67 346.31 821.489 346.31 820.818V816.591H347.952V814.773ZM360.493 817.261C360.277 815.653 358.982 814.659 356.777 814.659C354.544 814.659 353.072 815.693 353.078 817.375C353.072 818.682 353.896 819.528 355.601 819.869L357.112 820.17C357.874 820.324 358.22 820.602 358.232 821.04C358.22 821.557 357.658 821.926 356.811 821.926C355.947 821.926 355.374 821.557 355.226 820.847L352.845 820.972C353.072 822.642 354.493 823.67 356.805 823.67C359.067 823.67 360.686 822.517 360.692 820.795C360.686 819.534 359.862 818.778 358.169 818.432L356.589 818.114C355.777 817.938 355.476 817.659 355.482 817.239C355.476 816.716 356.067 816.375 356.817 816.375C357.658 816.375 358.158 816.835 358.277 817.398L360.493 817.261ZM364.636 818.455C364.642 817.33 365.33 816.67 366.318 816.67C367.301 816.67 367.881 817.301 367.875 818.375V823.5H370.295V817.943C370.301 815.898 369.097 814.659 367.278 814.659C365.955 814.659 365.068 815.284 364.67 816.312H364.568V811.864H362.216V823.5H364.636V818.455ZM376.143 823.67C378.791 823.67 380.439 821.858 380.439 819.17C380.439 816.466 378.791 814.659 376.143 814.659C373.496 814.659 371.848 816.466 371.848 819.17C371.848 821.858 373.496 823.67 376.143 823.67ZM376.155 821.795C374.933 821.795 374.308 820.676 374.308 819.153C374.308 817.631 374.933 816.506 376.155 816.506C377.354 816.506 377.979 817.631 377.979 819.153C377.979 820.676 377.354 821.795 376.155 821.795ZM383.516 823.5H386.072L387.572 818.011H387.68L389.18 823.5H391.743L394.112 814.773H391.669L390.339 820.602H390.266L388.834 814.773H386.43L385.021 820.636H384.942L383.589 814.773H381.141L383.516 823.5ZM402.665 817.261C402.449 815.653 401.153 814.659 398.949 814.659C396.716 814.659 395.244 815.693 395.25 817.375C395.244 818.682 396.068 819.528 397.773 819.869L399.284 820.17C400.045 820.324 400.392 820.602 400.403 821.04C400.392 821.557 399.83 821.926 398.983 821.926C398.119 821.926 397.545 821.557 397.398 820.847L395.017 820.972C395.244 822.642 396.665 823.67 398.977 823.67C401.239 823.67 402.858 822.517 402.864 820.795C402.858 819.534 402.034 818.778 400.341 818.432L398.761 818.114C397.949 817.938 397.648 817.659 397.653 817.239C397.648 816.716 398.239 816.375 398.989 816.375C399.83 816.375 400.33 816.835 400.449 817.398L402.665 817.261ZM409.585 826.773C411.386 826.773 412.341 825.852 412.835 824.443L416.227 814.784L413.665 814.773L411.841 821.182H411.75L409.943 814.773H407.398L410.528 823.75L410.386 824.119C410.068 824.938 409.46 824.977 408.608 824.716L408.062 826.523C408.409 826.67 408.972 826.773 409.585 826.773ZM421.112 823.67C423.76 823.67 425.408 821.858 425.408 819.17C425.408 816.466 423.76 814.659 421.112 814.659C418.464 814.659 416.817 816.466 416.817 819.17C416.817 821.858 418.464 823.67 421.112 823.67ZM421.124 821.795C419.902 821.795 419.277 820.676 419.277 819.153C419.277 817.631 419.902 816.506 421.124 816.506C422.322 816.506 422.947 817.631 422.947 819.153C422.947 820.676 422.322 821.795 421.124 821.795ZM432.578 819.784C432.584 820.955 431.783 821.568 430.913 821.568C429.999 821.568 429.408 820.926 429.402 819.898V814.773H426.982V820.33C426.987 822.369 428.18 823.614 429.936 823.614C431.249 823.614 432.192 822.938 432.584 821.915H432.675V823.5H434.999V814.773H432.578V819.784ZM436.935 823.5H439.355V818.562C439.355 817.489 440.139 816.75 441.207 816.75C441.543 816.75 442.003 816.807 442.23 816.881V814.733C442.014 814.682 441.713 814.648 441.469 814.648C440.491 814.648 439.69 815.216 439.372 816.295H439.281V814.773H436.935V823.5ZM447.185 823.5H449.605V818.261C449.605 817.295 450.219 816.653 451.026 816.653C451.821 816.653 452.355 817.199 452.355 818.057V823.5H454.702V818.17C454.702 817.267 455.219 816.653 456.099 816.653C456.872 816.653 457.452 817.136 457.452 818.108V823.5H459.866V817.631C459.866 815.739 458.741 814.659 457.116 814.659C455.838 814.659 454.844 815.312 454.486 816.312H454.395C454.116 815.301 453.224 814.659 452.026 814.659C450.849 814.659 449.957 815.284 449.594 816.312H449.491V814.773H447.185V823.5ZM465.722 823.67C468.369 823.67 470.017 821.858 470.017 819.17C470.017 816.466 468.369 814.659 465.722 814.659C463.074 814.659 461.426 816.466 461.426 819.17C461.426 821.858 463.074 823.67 465.722 823.67ZM465.733 821.795C464.511 821.795 463.886 820.676 463.886 819.153C463.886 817.631 464.511 816.506 465.733 816.506C466.932 816.506 467.557 817.631 467.557 819.153C467.557 820.676 466.932 821.795 465.733 821.795ZM475.534 823.67C478.182 823.67 479.83 821.858 479.83 819.17C479.83 816.466 478.182 814.659 475.534 814.659C472.886 814.659 471.239 816.466 471.239 819.17C471.239 821.858 472.886 823.67 475.534 823.67ZM475.545 821.795C474.324 821.795 473.699 820.676 473.699 819.153C473.699 817.631 474.324 816.506 475.545 816.506C476.744 816.506 477.369 817.631 477.369 819.153C477.369 820.676 476.744 821.795 475.545 821.795ZM484.619 823.642C486.028 823.642 486.761 822.83 487.097 822.102H487.199V823.5H489.585V811.864H487.17V816.239H487.097C486.773 815.528 486.074 814.659 484.614 814.659C482.699 814.659 481.08 816.148 481.08 819.148C481.08 822.068 482.631 823.642 484.619 823.642ZM485.386 821.716C484.199 821.716 483.551 820.659 483.551 819.136C483.551 817.625 484.188 816.585 485.386 816.585C486.562 816.585 487.222 817.58 487.222 819.136C487.222 820.693 486.551 821.716 485.386 821.716ZM127.455 842.665C128.744 842.665 129.58 842.102 130.006 841.29H130.074V842.5H132.369V836.614C132.369 834.534 130.608 833.659 128.665 833.659C126.574 833.659 125.199 834.659 124.864 836.25L127.102 836.432C127.267 835.852 127.784 835.426 128.653 835.426C129.477 835.426 129.949 835.841 129.949 836.557V836.591C129.949 837.153 129.352 837.227 127.835 837.375C126.108 837.534 124.557 838.114 124.557 840.062C124.557 841.79 125.79 842.665 127.455 842.665ZM128.148 840.994C127.403 840.994 126.869 840.648 126.869 839.983C126.869 839.301 127.432 838.966 128.284 838.847C128.812 838.773 129.676 838.648 129.966 838.455V839.381C129.966 840.295 129.21 840.994 128.148 840.994ZM141.509 836.261C141.293 834.653 139.997 833.659 137.793 833.659C135.56 833.659 134.088 834.693 134.094 836.375C134.088 837.682 134.912 838.528 136.616 838.869L138.128 839.17C138.889 839.324 139.236 839.602 139.247 840.04C139.236 840.557 138.673 840.926 137.827 840.926C136.963 840.926 136.389 840.557 136.241 839.847L133.861 839.972C134.088 841.642 135.509 842.67 137.821 842.67C140.082 842.67 141.702 841.517 141.707 839.795C141.702 838.534 140.878 837.778 139.185 837.432L137.605 837.114C136.793 836.938 136.491 836.659 136.497 836.239C136.491 835.716 137.082 835.375 137.832 835.375C138.673 835.375 139.173 835.835 139.293 836.398L141.509 836.261ZM148.429 845.773C150.23 845.773 151.185 844.852 151.679 843.443L155.071 833.784L152.509 833.773L150.685 840.182H150.594L148.787 833.773H146.241L149.372 842.75L149.23 843.119C148.912 843.938 148.304 843.977 147.452 843.716L146.906 845.523C147.253 845.67 147.815 845.773 148.429 845.773ZM159.956 842.67C162.604 842.67 164.251 840.858 164.251 838.17C164.251 835.466 162.604 833.659 159.956 833.659C157.308 833.659 155.661 835.466 155.661 838.17C155.661 840.858 157.308 842.67 159.956 842.67ZM159.967 840.795C158.746 840.795 158.121 839.676 158.121 838.153C158.121 836.631 158.746 835.506 159.967 835.506C161.166 835.506 161.791 836.631 161.791 838.153C161.791 839.676 161.166 840.795 159.967 840.795ZM171.422 838.784C171.428 839.955 170.626 840.568 169.757 840.568C168.842 840.568 168.251 839.926 168.246 838.898V833.773H165.825V839.33C165.831 841.369 167.024 842.614 168.78 842.614C170.092 842.614 171.036 841.938 171.428 840.915H171.518V842.5H173.842V833.773H171.422V838.784ZM181.203 842.5H183.76L185.26 837.011H185.368L186.868 842.5H189.43L191.8 833.773H189.357L188.027 839.602H187.953L186.521 833.773H184.118L182.709 839.636H182.629L181.277 833.773H178.828L181.203 842.5ZM196.815 842.67C199.463 842.67 201.111 840.858 201.111 838.17C201.111 835.466 199.463 833.659 196.815 833.659C194.168 833.659 192.52 835.466 192.52 838.17C192.52 840.858 194.168 842.67 196.815 842.67ZM196.827 840.795C195.605 840.795 194.98 839.676 194.98 838.153C194.98 836.631 195.605 835.506 196.827 835.506C198.026 835.506 198.651 836.631 198.651 838.153C198.651 839.676 198.026 840.795 196.827 840.795ZM202.685 842.5H205.105V837.562C205.105 836.489 205.889 835.75 206.957 835.75C207.293 835.75 207.753 835.807 207.98 835.881V833.733C207.764 833.682 207.463 833.648 207.219 833.648C206.241 833.648 205.44 834.216 205.122 835.295H205.031V833.773H202.685V842.5ZM209.232 842.5H211.652V839.727L212.305 838.983L214.686 842.5H217.521L214.118 837.551L217.357 833.773H214.578L211.783 837.085H211.652V830.864H209.232V842.5ZM219.959 842.648C220.686 842.648 221.317 842.04 221.322 841.284C221.317 840.54 220.686 839.932 219.959 839.932C219.209 839.932 218.589 840.54 218.595 841.284C218.589 842.04 219.209 842.648 219.959 842.648ZM229.131 842.5H231.528L233.739 834.892H233.83L236.045 842.5H238.443L241.773 830.864H239.085L237.159 838.966H237.057L234.938 830.864H232.636L230.511 838.949H230.415L228.489 830.864H225.801L229.131 842.5ZM246.084 842.67C248.243 842.67 249.697 841.619 250.038 840L247.8 839.852C247.555 840.517 246.93 840.864 246.124 840.864C244.913 840.864 244.146 840.062 244.146 838.761V838.756H250.089V838.091C250.089 835.125 248.294 833.659 245.987 833.659C243.419 833.659 241.754 835.483 241.754 838.176C241.754 840.943 243.396 842.67 246.084 842.67ZM244.146 837.256C244.197 836.261 244.953 835.466 246.027 835.466C247.078 835.466 247.805 836.216 247.811 837.256H244.146ZM257.094 842.5H259.651L261.151 837.011H261.259L262.759 842.5H265.321L267.69 833.773H265.247L263.918 839.602H263.844L262.412 833.773H260.009L258.599 839.636H258.52L257.168 833.773H254.719L257.094 842.5ZM272.74 842.67C274.899 842.67 276.354 841.619 276.695 840L274.456 839.852C274.212 840.517 273.587 840.864 272.78 840.864C271.57 840.864 270.803 840.062 270.803 838.761V838.756H276.746V838.091C276.746 835.125 274.95 833.659 272.643 833.659C270.075 833.659 268.411 835.483 268.411 838.176C268.411 840.943 270.053 842.67 272.74 842.67ZM270.803 837.256C270.854 836.261 271.609 835.466 272.683 835.466C273.734 835.466 274.462 836.216 274.467 837.256H270.803ZM283.75 842.5H286.307L287.807 837.011H287.915L289.415 842.5H291.977L294.347 833.773H291.903L290.574 839.602H290.5L289.068 833.773H286.665L285.256 839.636H285.176L283.824 833.773H281.375L283.75 842.5ZM295.638 842.5H298.058V833.773H295.638V842.5ZM296.854 832.648C297.575 832.648 298.166 832.097 298.166 831.42C298.166 830.75 297.575 830.199 296.854 830.199C296.138 830.199 295.547 830.75 295.547 831.42C295.547 832.097 296.138 832.648 296.854 832.648ZM302.418 830.864H299.997V842.5H302.418V830.864ZM306.777 830.864H304.357V842.5H306.777V830.864ZM314.908 842.665C316.197 842.665 317.033 842.102 317.459 841.29H317.527V842.5H319.822V836.614C319.822 834.534 318.061 833.659 316.118 833.659C314.027 833.659 312.652 834.659 312.317 836.25L314.555 836.432C314.72 835.852 315.237 835.426 316.107 835.426C316.93 835.426 317.402 835.841 317.402 836.557V836.591C317.402 837.153 316.805 837.227 315.288 837.375C313.561 837.534 312.01 838.114 312.01 840.062C312.01 841.79 313.243 842.665 314.908 842.665ZM315.601 840.994C314.857 840.994 314.322 840.648 314.322 839.983C314.322 839.301 314.885 838.966 315.737 838.847C316.266 838.773 317.129 838.648 317.419 838.455V839.381C317.419 840.295 316.663 840.994 315.601 840.994ZM324.121 830.864H321.7V842.5H324.121V830.864ZM330.037 842.67C332.196 842.67 333.651 841.619 333.991 840L331.753 839.852C331.509 840.517 330.884 840.864 330.077 840.864C328.866 840.864 328.099 840.062 328.099 838.761V838.756H334.043V838.091C334.043 835.125 332.247 833.659 329.94 833.659C327.372 833.659 325.707 835.483 325.707 838.176C325.707 840.943 327.349 842.67 330.037 842.67ZM328.099 837.256C328.151 836.261 328.906 835.466 329.98 835.466C331.031 835.466 331.759 836.216 331.764 837.256H328.099ZM335.622 842.5H338.043V837.562C338.043 836.489 338.827 835.75 339.895 835.75C340.23 835.75 340.69 835.807 340.918 835.881V833.733C340.702 833.682 340.401 833.648 340.156 833.648C339.179 833.648 338.378 834.216 338.06 835.295H337.969V833.773H335.622V842.5ZM347.249 833.773H345.607V831.682H343.186V833.773H341.993V835.591H343.186V840.136C343.175 841.847 344.339 842.693 346.095 842.619C346.72 842.597 347.163 842.472 347.408 842.392L347.027 840.591C346.908 840.614 346.652 840.67 346.425 840.67C345.942 840.67 345.607 840.489 345.607 839.818V835.591H347.249V833.773ZM354.023 845.773C355.824 845.773 356.778 844.852 357.273 843.443L360.665 833.784L358.102 833.773L356.278 840.182H356.188L354.381 833.773H351.835L354.966 842.75L354.824 843.119C354.506 843.938 353.898 843.977 353.045 843.716L352.5 845.523C352.847 845.67 353.409 845.773 354.023 845.773ZM365.55 842.67C368.197 842.67 369.845 840.858 369.845 838.17C369.845 835.466 368.197 833.659 365.55 833.659C362.902 833.659 361.254 835.466 361.254 838.17C361.254 840.858 362.902 842.67 365.55 842.67ZM365.561 840.795C364.339 840.795 363.714 839.676 363.714 838.153C363.714 836.631 364.339 835.506 365.561 835.506C366.76 835.506 367.385 836.631 367.385 838.153C367.385 839.676 366.76 840.795 365.561 840.795ZM377.016 838.784C377.021 839.955 376.22 840.568 375.351 840.568C374.436 840.568 373.845 839.926 373.839 838.898V833.773H371.419V839.33C371.425 841.369 372.618 842.614 374.374 842.614C375.686 842.614 376.629 841.938 377.021 840.915H377.112V842.5H379.436V833.773H377.016V838.784ZM385.075 842.5H387.496V833.773H385.075V842.5ZM386.291 832.648C387.013 832.648 387.604 832.097 387.604 831.42C387.604 830.75 387.013 830.199 386.291 830.199C385.575 830.199 384.984 830.75 384.984 831.42C384.984 832.097 385.575 832.648 386.291 832.648ZM394.128 833.773H392.395V833.188C392.395 832.597 392.634 832.25 393.344 832.25C393.634 832.25 393.929 832.312 394.122 832.375L394.548 830.557C394.247 830.466 393.582 830.318 392.838 830.318C391.196 830.318 389.974 831.244 389.974 833.142V833.773H388.741V835.591H389.974V842.5H392.395V835.591H394.128V833.773ZM406.571 836.261C406.355 834.653 405.06 833.659 402.855 833.659C400.622 833.659 399.151 834.693 399.156 836.375C399.151 837.682 399.974 838.528 401.679 838.869L403.19 839.17C403.952 839.324 404.298 839.602 404.31 840.04C404.298 840.557 403.736 840.926 402.889 840.926C402.026 840.926 401.452 840.557 401.304 839.847L398.923 839.972C399.151 841.642 400.571 842.67 402.884 842.67C405.145 842.67 406.764 841.517 406.77 839.795C406.764 838.534 405.94 837.778 404.247 837.432L402.668 837.114C401.855 836.938 401.554 836.659 401.56 836.239C401.554 835.716 402.145 835.375 402.895 835.375C403.736 835.375 404.236 835.835 404.355 836.398L406.571 836.261ZM412.237 842.67C414.885 842.67 416.533 840.858 416.533 838.17C416.533 835.466 414.885 833.659 412.237 833.659C409.589 833.659 407.942 835.466 407.942 838.17C407.942 840.858 409.589 842.67 412.237 842.67ZM412.249 840.795C411.027 840.795 410.402 839.676 410.402 838.153C410.402 836.631 411.027 835.506 412.249 835.506C413.447 835.506 414.072 836.631 414.072 838.153C414.072 839.676 413.447 840.795 412.249 840.795ZM418.107 842.5H420.527V837.261C420.527 836.295 421.141 835.653 421.947 835.653C422.743 835.653 423.277 836.199 423.277 837.057V842.5H425.624V837.17C425.624 836.267 426.141 835.653 427.021 835.653C427.794 835.653 428.374 836.136 428.374 837.108V842.5H430.788V836.631C430.788 834.739 429.663 833.659 428.038 833.659C426.76 833.659 425.766 834.312 425.408 835.312H425.317C425.038 834.301 424.146 833.659 422.947 833.659C421.771 833.659 420.879 834.284 420.516 835.312H420.413V833.773H418.107V842.5ZM436.678 842.67C438.837 842.67 440.291 841.619 440.632 840L438.393 839.852C438.149 840.517 437.524 840.864 436.717 840.864C435.507 840.864 434.74 840.062 434.74 838.761V838.756H440.683V838.091C440.683 835.125 438.888 833.659 436.581 833.659C434.013 833.659 432.348 835.483 432.348 838.176C432.348 840.943 433.99 842.67 436.678 842.67ZM434.74 837.256C434.791 836.261 435.547 835.466 436.621 835.466C437.672 835.466 438.399 836.216 438.405 837.256H434.74ZM446.905 833.773H445.263V831.682H442.842V833.773H441.649V835.591H442.842V840.136C442.831 841.847 443.996 842.693 445.751 842.619C446.376 842.597 446.82 842.472 447.064 842.392L446.683 840.591C446.564 840.614 446.308 840.67 446.081 840.67C445.598 840.67 445.263 840.489 445.263 839.818V835.591H446.905V833.773ZM451.089 837.455C451.095 836.33 451.783 835.67 452.771 835.67C453.754 835.67 454.334 836.301 454.328 837.375V842.5H456.749V836.943C456.754 834.898 455.55 833.659 453.732 833.659C452.408 833.659 451.521 834.284 451.124 835.312H451.021V830.864H448.669V842.5H451.089V837.455ZM458.653 842.5H461.074V833.773H458.653V842.5ZM459.869 832.648C460.591 832.648 461.182 832.097 461.182 831.42C461.182 830.75 460.591 830.199 459.869 830.199C459.153 830.199 458.562 830.75 458.562 831.42C458.562 832.097 459.153 832.648 459.869 832.648ZM465.433 837.455C465.439 836.33 466.109 835.67 467.087 835.67C468.058 835.67 468.643 836.307 468.638 837.375V842.5H471.058V836.943C471.058 834.909 469.865 833.659 468.047 833.659C466.751 833.659 465.814 834.295 465.422 835.312H465.32V833.773H463.013V842.5H465.433V837.455ZM476.898 845.955C479.392 845.955 481.165 844.818 481.165 842.585V833.773H478.761V835.239H478.67C478.347 834.528 477.636 833.659 476.176 833.659C474.261 833.659 472.642 835.148 472.642 838.119C472.642 841.023 474.216 842.375 476.182 842.375C477.574 842.375 478.352 841.676 478.67 840.955H478.773V842.551C478.773 843.75 478.006 844.216 476.955 844.216C475.886 844.216 475.347 843.75 475.148 843.222L472.909 843.523C473.199 844.898 474.545 845.955 476.898 845.955ZM476.949 840.557C475.761 840.557 475.114 839.614 475.114 838.108C475.114 836.625 475.75 835.585 476.949 835.585C478.125 835.585 478.784 836.58 478.784 838.108C478.784 839.648 478.114 840.557 476.949 840.557ZM486.794 842.5H489.214V833.773H486.794V842.5ZM488.01 832.648C488.732 832.648 489.322 832.097 489.322 831.42C489.322 830.75 488.732 830.199 488.01 830.199C487.294 830.199 486.703 830.75 486.703 831.42C486.703 832.097 487.294 832.648 488.01 832.648ZM498.415 836.261C498.199 834.653 496.903 833.659 494.699 833.659C492.466 833.659 490.994 834.693 491 836.375C490.994 837.682 491.818 838.528 493.523 838.869L495.034 839.17C495.795 839.324 496.142 839.602 496.153 840.04C496.142 840.557 495.58 840.926 494.733 840.926C493.869 840.926 493.295 840.557 493.148 839.847L490.767 839.972C490.994 841.642 492.415 842.67 494.727 842.67C496.989 842.67 498.608 841.517 498.614 839.795C498.608 838.534 497.784 837.778 496.091 837.432L494.511 837.114C493.699 836.938 493.398 836.659 493.403 836.239C493.398 835.716 493.989 835.375 494.739 835.375C495.58 835.375 496.08 835.835 496.199 836.398L498.415 836.261ZM509.438 838.784C509.443 839.955 508.642 840.568 507.773 840.568C506.858 840.568 506.267 839.926 506.261 838.898V833.773H503.841V839.33C503.847 841.369 505.04 842.614 506.795 842.614C508.108 842.614 509.051 841.938 509.443 840.915H509.534V842.5H511.858V833.773H509.438V838.784ZM513.794 845.773H516.214V841.102H516.288C516.624 841.83 517.357 842.642 518.766 842.642C520.754 842.642 522.305 841.068 522.305 838.148C522.305 835.148 520.686 833.659 518.771 833.659C517.311 833.659 516.612 834.528 516.288 835.239H516.18V833.773H513.794V845.773ZM516.163 838.136C516.163 836.58 516.822 835.585 517.999 835.585C519.197 835.585 519.834 836.625 519.834 838.136C519.834 839.659 519.186 840.716 517.999 840.716C516.834 840.716 516.163 839.693 516.163 838.136ZM526.811 830.864H524.283L524.51 839.011H526.589L526.811 830.864ZM525.55 842.648C526.277 842.648 526.908 842.04 526.913 841.284C526.908 840.54 526.277 839.932 525.55 839.932C524.8 839.932 524.18 840.54 524.186 841.284C524.18 842.04 524.8 842.648 525.55 842.648Z" fill="white"/>
<g clip-path="url(#clip0_68:2)">
<rect x="318" y="866.5" width="12" height="12" rx="2" transform="rotate(-45 318 866.5)" fill="black"/>
</g>
<g clip-path="url(#clip1_68:2)">
<rect x="1117.28" y="464.264" width="10.9213" height="10.9213" rx="1.82022" transform="rotate(45 1117.28 464.264)" fill="black"/>
</g>
<rect x="1117.28" y="428" width="397.719" height="88" rx="4.55056" fill="black"/>
<path d="M1139.17 452.912H1141.52C1141.49 450.839 1139.79 449.407 1137.2 449.407C1134.64 449.407 1132.77 450.816 1132.79 452.93C1132.78 454.645 1133.99 455.628 1135.96 456.1L1137.22 456.418C1138.49 456.725 1139.2 457.089 1139.2 457.873C1139.2 458.725 1138.39 459.305 1137.14 459.305C1135.86 459.305 1134.94 458.714 1134.86 457.549H1132.48C1132.54 460.066 1134.34 461.367 1137.17 461.367C1140.01 461.367 1141.68 460.009 1141.68 457.878C1141.68 455.941 1140.22 454.912 1138.2 454.458L1137.15 454.208C1136.14 453.975 1135.29 453.6 1135.31 452.765C1135.31 452.015 1135.97 451.464 1137.18 451.464C1138.35 451.464 1139.08 451.998 1139.17 452.912ZM1143.29 461.202H1145.71V455.964C1145.71 454.998 1146.33 454.356 1147.13 454.356C1147.93 454.356 1148.46 454.901 1148.46 455.759V461.202H1150.81V455.873C1150.81 454.969 1151.33 454.356 1152.21 454.356C1152.98 454.356 1153.56 454.839 1153.56 455.81V461.202H1155.97V455.333C1155.97 453.441 1154.85 452.361 1153.22 452.361C1151.95 452.361 1150.95 453.015 1150.59 454.015H1150.5C1150.22 453.003 1149.33 452.361 1148.13 452.361C1146.96 452.361 1146.07 452.986 1145.7 454.015H1145.6V452.475H1143.29V461.202ZM1157.89 461.202H1160.31V452.475H1157.89V461.202ZM1159.1 451.35C1159.82 451.35 1160.42 450.799 1160.42 450.123C1160.42 449.452 1159.82 448.901 1159.1 448.901C1158.39 448.901 1157.8 449.452 1157.8 450.123C1157.8 450.799 1158.39 451.35 1159.1 451.35ZM1164.67 449.566H1162.25V461.202H1164.67V449.566ZM1170.58 461.373C1172.74 461.373 1174.2 460.322 1174.54 458.702L1172.3 458.555C1172.05 459.219 1171.43 459.566 1170.62 459.566C1169.41 459.566 1168.65 458.765 1168.65 457.464V457.458H1174.59V456.793C1174.59 453.827 1172.79 452.361 1170.49 452.361C1167.92 452.361 1166.25 454.185 1166.25 456.878C1166.25 459.645 1167.9 461.373 1170.58 461.373ZM1168.65 455.958C1168.7 454.964 1169.45 454.168 1170.53 454.168C1171.58 454.168 1172.3 454.918 1172.31 455.958H1168.65ZM1179.06 449.566H1176.53L1176.76 457.714H1178.84L1179.06 449.566ZM1177.8 461.35C1178.53 461.35 1179.16 460.742 1179.16 459.986C1179.16 459.242 1178.53 458.634 1177.8 458.634C1177.05 458.634 1176.43 459.242 1176.44 459.986C1176.43 460.742 1177.05 461.35 1177.8 461.35ZM1187.11 461.202L1187.97 458.549H1192.17L1193.04 461.202H1195.67L1191.66 449.566H1188.49L1184.47 461.202H1187.11ZM1188.6 456.628L1190.03 452.225H1190.12L1191.55 456.628H1188.6ZM1204.09 454.964C1203.87 453.356 1202.57 452.361 1200.37 452.361C1198.14 452.361 1196.67 453.395 1196.67 455.077C1196.67 456.384 1197.49 457.231 1199.19 457.572L1200.7 457.873C1201.47 458.026 1201.81 458.305 1201.82 458.742C1201.81 459.259 1201.25 459.628 1200.4 459.628C1199.54 459.628 1198.97 459.259 1198.82 458.549L1196.44 458.674C1196.67 460.344 1198.09 461.373 1200.4 461.373C1202.66 461.373 1204.28 460.219 1204.28 458.498C1204.28 457.236 1203.45 456.481 1201.76 456.134L1200.18 455.816C1199.37 455.64 1199.07 455.361 1199.07 454.941C1199.07 454.418 1199.66 454.077 1200.41 454.077C1201.25 454.077 1201.75 454.537 1201.87 455.1L1204.09 454.964ZM1211.01 464.475C1212.81 464.475 1213.76 463.555 1214.26 462.145L1217.65 452.486L1215.09 452.475L1213.26 458.884H1213.17L1211.36 452.475H1208.82L1211.95 461.452L1211.81 461.822C1211.49 462.64 1210.88 462.68 1210.03 462.418L1209.48 464.225C1209.83 464.373 1210.39 464.475 1211.01 464.475ZM1222.53 461.373C1225.18 461.373 1226.83 459.56 1226.83 456.873C1226.83 454.168 1225.18 452.361 1222.53 452.361C1219.89 452.361 1218.24 454.168 1218.24 456.873C1218.24 459.56 1219.89 461.373 1222.53 461.373ZM1222.54 459.498C1221.32 459.498 1220.7 458.378 1220.7 456.856C1220.7 455.333 1221.32 454.208 1222.54 454.208C1223.74 454.208 1224.37 455.333 1224.37 456.856C1224.37 458.378 1223.74 459.498 1222.54 459.498ZM1234 457.486C1234 458.657 1233.2 459.27 1232.33 459.27C1231.42 459.27 1230.83 458.628 1230.82 457.6V452.475H1228.4V458.032C1228.41 460.072 1229.6 461.316 1231.36 461.316C1232.67 461.316 1233.61 460.64 1234 459.617H1234.1V461.202H1236.42V452.475H1234V457.486ZM1243.78 461.202H1246.34L1247.84 455.714H1247.95L1249.45 461.202H1252.01L1254.38 452.475H1251.93L1250.6 458.305H1250.53L1249.1 452.475H1246.7L1245.29 458.339H1245.21L1243.85 452.475H1241.41L1243.78 461.202ZM1259.39 461.373C1262.04 461.373 1263.69 459.56 1263.69 456.873C1263.69 454.168 1262.04 452.361 1259.39 452.361C1256.74 452.361 1255.1 454.168 1255.1 456.873C1255.1 459.56 1256.74 461.373 1259.39 461.373ZM1259.4 459.498C1258.18 459.498 1257.56 458.378 1257.56 456.856C1257.56 455.333 1258.18 454.208 1259.4 454.208C1260.6 454.208 1261.23 455.333 1261.23 456.856C1261.23 458.378 1260.6 459.498 1259.4 459.498ZM1265.26 461.202H1267.68V456.265C1267.68 455.191 1268.47 454.452 1269.53 454.452C1269.87 454.452 1270.33 454.509 1270.56 454.583V452.435C1270.34 452.384 1270.04 452.35 1269.8 452.35C1268.82 452.35 1268.02 452.918 1267.7 453.998H1267.61V452.475H1265.26V461.202ZM1271.81 461.202H1274.23V458.43L1274.88 457.685L1277.26 461.202H1280.1L1276.7 456.253L1279.93 452.475H1277.16L1274.36 455.787H1274.23V449.566H1271.81V461.202ZM1286.55 461.202H1289.1L1290.6 455.714H1290.71L1292.21 461.202H1294.77L1297.14 452.475H1294.7L1293.37 458.305H1293.3L1291.86 452.475H1289.46L1288.05 458.339H1287.97L1286.62 452.475H1284.17L1286.55 461.202ZM1302.19 461.373C1304.35 461.373 1305.81 460.322 1306.15 458.702L1303.91 458.555C1303.66 459.219 1303.04 459.566 1302.23 459.566C1301.02 459.566 1300.25 458.765 1300.25 457.464V457.458H1306.2V456.793C1306.2 453.827 1304.4 452.361 1302.1 452.361C1299.53 452.361 1297.86 454.185 1297.86 456.878C1297.86 459.645 1299.5 461.373 1302.19 461.373ZM1300.25 455.958C1300.31 454.964 1301.06 454.168 1302.14 454.168C1303.19 454.168 1303.91 454.918 1303.92 455.958H1300.25ZM1313.2 461.202H1315.76L1317.26 455.714H1317.37L1318.87 461.202H1321.43L1323.8 452.475H1321.36L1320.03 458.305H1319.95L1318.52 452.475H1316.12L1314.71 458.339H1314.63L1313.28 452.475H1310.83L1313.2 461.202ZM1325.09 461.202H1327.51V452.475H1325.09V461.202ZM1326.31 451.35C1327.03 451.35 1327.62 450.799 1327.62 450.123C1327.62 449.452 1327.03 448.901 1326.31 448.901C1325.59 448.901 1325 449.452 1325 450.123C1325 450.799 1325.59 451.35 1326.31 451.35ZM1331.87 449.566H1329.45V461.202H1331.87V449.566ZM1336.23 449.566H1333.81V461.202H1336.23V449.566ZM1344.36 461.367C1345.65 461.367 1346.48 460.805 1346.91 459.992H1346.98V461.202H1349.27V455.316C1349.27 453.236 1347.51 452.361 1345.57 452.361C1343.48 452.361 1342.1 453.361 1341.77 454.952L1344.01 455.134C1344.17 454.555 1344.69 454.128 1345.56 454.128C1346.38 454.128 1346.85 454.543 1346.85 455.259V455.293C1346.85 455.856 1346.26 455.93 1344.74 456.077C1343.01 456.236 1341.46 456.816 1341.46 458.765C1341.46 460.492 1342.7 461.367 1344.36 461.367ZM1345.05 459.697C1344.31 459.697 1343.77 459.35 1343.77 458.685C1343.77 458.003 1344.34 457.668 1345.19 457.549C1345.72 457.475 1346.58 457.35 1346.87 457.157V458.083C1346.87 458.998 1346.12 459.697 1345.05 459.697ZM1353.57 456.157C1353.58 455.032 1354.25 454.373 1355.23 454.373C1356.2 454.373 1356.78 455.009 1356.78 456.077V461.202H1359.2V455.645C1359.2 453.611 1358 452.361 1356.19 452.361C1354.89 452.361 1353.95 452.998 1353.56 454.015H1353.46V452.475H1351.15V461.202H1353.57V456.157ZM1363.59 461.367C1364.88 461.367 1365.72 460.805 1366.15 459.992H1366.21V461.202H1368.51V455.316C1368.51 453.236 1366.75 452.361 1364.8 452.361C1362.71 452.361 1361.34 453.361 1361 454.952L1363.24 455.134C1363.41 454.555 1363.92 454.128 1364.79 454.128C1365.62 454.128 1366.09 454.543 1366.09 455.259V455.293C1366.09 455.856 1365.49 455.93 1363.97 456.077C1362.25 456.236 1360.7 456.816 1360.7 458.765C1360.7 460.492 1361.93 461.367 1363.59 461.367ZM1364.29 459.697C1363.54 459.697 1363.01 459.35 1363.01 458.685C1363.01 458.003 1363.57 457.668 1364.42 457.549C1364.95 457.475 1365.82 457.35 1366.11 457.157V458.083C1366.11 458.998 1365.35 459.697 1364.29 459.697ZM1372.81 449.566H1370.39V461.202H1372.81V449.566ZM1376.24 464.475C1378.04 464.475 1379 463.555 1379.49 462.145L1382.88 452.486L1380.32 452.475L1378.5 458.884H1378.41L1376.6 452.475H1374.05L1377.18 461.452L1377.04 461.822C1376.72 462.64 1376.12 462.68 1375.26 462.418L1374.72 464.225C1375.06 464.373 1375.63 464.475 1376.24 464.475ZM1384.08 461.202H1391.41V459.27H1387.25V459.208L1391.26 454.049V452.475H1384.22V454.407H1388.35V454.469L1384.08 459.759V461.202ZM1396.99 461.373C1399.15 461.373 1400.6 460.322 1400.94 458.702L1398.7 458.555C1398.46 459.219 1397.84 459.566 1397.03 459.566C1395.82 459.566 1395.05 458.765 1395.05 457.464V457.458H1400.99V456.793C1400.99 453.827 1399.2 452.361 1396.89 452.361C1394.32 452.361 1392.66 454.185 1392.66 456.878C1392.66 459.645 1394.3 461.373 1396.99 461.373ZM1395.05 455.958C1395.1 454.964 1395.86 454.168 1396.93 454.168C1397.98 454.168 1398.71 454.918 1398.72 455.958H1395.05ZM1407.77 464.475C1409.57 464.475 1410.53 463.555 1411.02 462.145L1414.41 452.486L1411.85 452.475L1410.03 458.884H1409.94L1408.13 452.475H1405.58L1408.71 461.452L1408.57 461.822C1408.25 462.64 1407.65 462.68 1406.79 462.418L1406.25 464.225C1406.6 464.373 1407.16 464.475 1407.77 464.475ZM1419.3 461.373C1421.95 461.373 1423.59 459.56 1423.59 456.873C1423.59 454.168 1421.95 452.361 1419.3 452.361C1416.65 452.361 1415 454.168 1415 456.873C1415 459.56 1416.65 461.373 1419.3 461.373ZM1419.31 459.498C1418.09 459.498 1417.46 458.378 1417.46 456.856C1417.46 455.333 1418.09 454.208 1419.31 454.208C1420.51 454.208 1421.13 455.333 1421.13 456.856C1421.13 458.378 1420.51 459.498 1419.31 459.498ZM1430.76 457.486C1430.77 458.657 1429.97 459.27 1429.1 459.27C1428.19 459.27 1427.59 458.628 1427.59 457.6V452.475H1425.17V458.032C1425.17 460.072 1426.37 461.316 1428.12 461.316C1429.44 461.316 1430.38 460.64 1430.77 459.617H1430.86V461.202H1433.19V452.475H1430.76V457.486ZM1435.12 461.202H1437.54V456.265C1437.54 455.191 1438.33 454.452 1439.39 454.452C1439.73 454.452 1440.19 454.509 1440.42 454.583V452.435C1440.2 452.384 1439.9 452.35 1439.66 452.35C1438.68 452.35 1437.88 452.918 1437.56 453.998H1437.47V452.475H1435.12V461.202ZM1136.75 480.373C1139.08 480.373 1140.54 479.009 1140.65 477.003H1138.37C1138.22 477.935 1137.61 478.458 1136.78 478.458C1135.65 478.458 1134.92 477.509 1134.92 475.839C1134.92 474.191 1135.66 473.248 1136.78 473.248C1137.67 473.248 1138.23 473.833 1138.37 474.702H1140.65C1140.55 472.685 1139.02 471.361 1136.74 471.361C1134.09 471.361 1132.46 473.197 1132.46 475.873C1132.46 478.526 1134.06 480.373 1136.75 480.373ZM1144.69 480.367C1145.98 480.367 1146.81 479.805 1147.24 478.992H1147.31V480.202H1149.6V474.316C1149.6 472.236 1147.84 471.361 1145.9 471.361C1143.81 471.361 1142.43 472.361 1142.1 473.952L1144.34 474.134C1144.5 473.555 1145.02 473.128 1145.89 473.128C1146.71 473.128 1147.18 473.543 1147.18 474.259V474.293C1147.18 474.856 1146.59 474.93 1145.07 475.077C1143.34 475.236 1141.79 475.816 1141.79 477.765C1141.79 479.492 1143.02 480.367 1144.69 480.367ZM1145.38 478.697C1144.64 478.697 1144.1 478.35 1144.1 477.685C1144.1 477.003 1144.67 476.668 1145.52 476.549C1146.05 476.475 1146.91 476.35 1147.2 476.157V477.083C1147.2 477.998 1146.44 478.697 1145.38 478.697ZM1151.48 480.202H1153.9V474.964C1153.9 473.998 1154.51 473.356 1155.32 473.356C1156.12 473.356 1156.65 473.901 1156.65 474.759V480.202H1159V474.873C1159 473.969 1159.51 473.356 1160.4 473.356C1161.17 473.356 1161.75 473.839 1161.75 474.81V480.202H1164.16V474.333C1164.16 472.441 1163.04 471.361 1161.41 471.361C1160.13 471.361 1159.14 472.015 1158.78 473.015H1158.69C1158.41 472.003 1157.52 471.361 1156.32 471.361C1155.15 471.361 1154.25 471.986 1153.89 473.015H1153.79V471.475H1151.48V480.202ZM1170.05 480.373C1172.21 480.373 1173.67 479.322 1174.01 477.702L1171.77 477.555C1171.52 478.219 1170.9 478.566 1170.09 478.566C1168.88 478.566 1168.11 477.765 1168.11 476.464V476.458H1174.06V475.793C1174.06 472.827 1172.26 471.361 1169.95 471.361C1167.39 471.361 1165.72 473.185 1165.72 475.878C1165.72 478.645 1167.36 480.373 1170.05 480.373ZM1168.11 474.958C1168.17 473.964 1168.92 473.168 1169.99 473.168C1171.05 473.168 1171.77 473.918 1171.78 474.958H1168.11ZM1175.64 480.202H1178.06V475.265C1178.06 474.191 1178.84 473.452 1179.91 473.452C1180.24 473.452 1180.7 473.509 1180.93 473.583V471.435C1180.72 471.384 1180.42 471.35 1180.17 471.35C1179.19 471.35 1178.39 471.918 1178.07 472.998H1177.98V471.475H1175.64V480.202ZM1184.42 480.367C1185.71 480.367 1186.55 479.805 1186.97 478.992H1187.04V480.202H1189.34V474.316C1189.34 472.236 1187.58 471.361 1185.63 471.361C1183.54 471.361 1182.17 472.361 1181.83 473.952L1184.07 474.134C1184.23 473.555 1184.75 473.128 1185.62 473.128C1186.45 473.128 1186.92 473.543 1186.92 474.259V474.293C1186.92 474.856 1186.32 474.93 1184.8 475.077C1183.08 475.236 1181.52 475.816 1181.52 477.765C1181.52 479.492 1182.76 480.367 1184.42 480.367ZM1185.12 478.697C1184.37 478.697 1183.84 478.35 1183.84 477.685C1183.84 477.003 1184.4 476.668 1185.25 476.549C1185.78 476.475 1186.64 476.35 1186.93 476.157V477.083C1186.93 477.998 1186.18 478.697 1185.12 478.697ZM1198.13 480.344C1199.54 480.344 1200.28 479.532 1200.61 478.805H1200.71V480.202H1203.1V468.566H1200.69V472.941H1200.61C1200.29 472.231 1199.59 471.361 1198.13 471.361C1196.21 471.361 1194.59 472.85 1194.59 475.85C1194.59 478.77 1196.15 480.344 1198.13 480.344ZM1198.9 478.418C1197.71 478.418 1197.07 477.361 1197.07 475.839C1197.07 474.327 1197.7 473.287 1198.9 473.287C1200.08 473.287 1200.74 474.282 1200.74 475.839C1200.74 477.395 1200.07 478.418 1198.9 478.418ZM1207.58 480.367C1208.87 480.367 1209.7 479.805 1210.13 478.992H1210.2V480.202H1212.49V474.316C1212.49 472.236 1210.73 471.361 1208.79 471.361C1206.7 471.361 1205.32 472.361 1204.99 473.952L1207.23 474.134C1207.39 473.555 1207.91 473.128 1208.78 473.128C1209.6 473.128 1210.07 473.543 1210.07 474.259V474.293C1210.07 474.856 1209.48 474.93 1207.96 475.077C1206.23 475.236 1204.68 475.816 1204.68 477.765C1204.68 479.492 1205.91 480.367 1207.58 480.367ZM1208.27 478.697C1207.53 478.697 1206.99 478.35 1206.99 477.685C1206.99 477.003 1207.56 476.668 1208.41 476.549C1208.94 476.475 1209.8 476.35 1210.09 476.157V477.083C1210.09 477.998 1209.33 478.697 1208.27 478.697ZM1219.01 471.475H1217.37V469.384H1214.95V471.475H1213.76V473.293H1214.95V477.839C1214.94 479.549 1216.1 480.395 1217.86 480.322C1218.48 480.299 1218.93 480.174 1219.17 480.094L1218.79 478.293C1218.67 478.316 1218.42 478.373 1218.19 478.373C1217.71 478.373 1217.37 478.191 1217.37 477.52V473.293H1219.01V471.475ZM1223.08 480.367C1224.37 480.367 1225.2 479.805 1225.63 478.992H1225.7V480.202H1227.99V474.316C1227.99 472.236 1226.23 471.361 1224.29 471.361C1222.2 471.361 1220.82 472.361 1220.49 473.952L1222.73 474.134C1222.89 473.555 1223.41 473.128 1224.28 473.128C1225.1 473.128 1225.57 473.543 1225.57 474.259V474.293C1225.57 474.856 1224.98 474.93 1223.46 475.077C1221.73 475.236 1220.18 475.816 1220.18 477.765C1220.18 479.492 1221.41 480.367 1223.08 480.367ZM1223.77 478.697C1223.03 478.697 1222.49 478.35 1222.49 477.685C1222.49 477.003 1223.06 476.668 1223.91 476.549C1224.44 476.475 1225.3 476.35 1225.59 476.157V477.083C1225.59 477.998 1224.83 478.697 1223.77 478.697ZM1238.22 471.475H1236.57V469.384H1234.15V471.475H1232.96V473.293H1234.15V477.839C1234.14 479.549 1235.31 480.395 1237.06 480.322C1237.69 480.299 1238.13 480.174 1238.38 480.094L1237.99 478.293C1237.88 478.316 1237.62 478.373 1237.39 478.373C1236.91 478.373 1236.57 478.191 1236.57 477.52V473.293H1238.22V471.475ZM1243.64 480.373C1246.29 480.373 1247.94 478.56 1247.94 475.873C1247.94 473.168 1246.29 471.361 1243.64 471.361C1240.99 471.361 1239.35 473.168 1239.35 475.873C1239.35 478.56 1240.99 480.373 1243.64 480.373ZM1243.65 478.498C1242.43 478.498 1241.81 477.378 1241.81 475.856C1241.81 474.333 1242.43 473.208 1243.65 473.208C1244.85 473.208 1245.48 474.333 1245.48 475.856C1245.48 477.378 1244.85 478.498 1243.65 478.498ZM1256.43 480.344C1257.84 480.344 1258.57 479.532 1258.91 478.805H1259.01V480.202H1261.4V468.566H1258.98V472.941H1258.91C1258.58 472.231 1257.89 471.361 1256.43 471.361C1254.51 471.361 1252.89 472.85 1252.89 475.85C1252.89 478.77 1254.44 480.344 1256.43 480.344ZM1257.2 478.418C1256.01 478.418 1255.36 477.361 1255.36 475.839C1255.36 474.327 1256 473.287 1257.2 473.287C1258.37 473.287 1259.03 474.282 1259.03 475.839C1259.03 477.395 1258.36 478.418 1257.2 478.418ZM1267.36 480.373C1269.52 480.373 1270.98 479.322 1271.32 477.702L1269.08 477.555C1268.84 478.219 1268.21 478.566 1267.4 478.566C1266.19 478.566 1265.43 477.765 1265.43 476.464V476.458H1271.37V475.793C1271.37 472.827 1269.57 471.361 1267.27 471.361C1264.7 471.361 1263.03 473.185 1263.03 475.878C1263.03 478.645 1264.68 480.373 1267.36 480.373ZM1265.43 474.958C1265.48 473.964 1266.23 473.168 1267.31 473.168C1268.36 473.168 1269.09 473.918 1269.09 474.958H1265.43ZM1277.59 471.475H1275.95V469.384H1273.53V471.475H1272.34V473.293H1273.53V477.839C1273.52 479.549 1274.68 480.395 1276.44 480.322C1277.06 480.299 1277.51 480.174 1277.75 480.094L1277.37 478.293C1277.25 478.316 1276.99 478.373 1276.77 478.373C1276.28 478.373 1275.95 478.191 1275.95 477.52V473.293H1277.59V471.475ZM1283.05 480.373C1285.21 480.373 1286.67 479.322 1287.01 477.702L1284.77 477.555C1284.52 478.219 1283.9 478.566 1283.09 478.566C1281.88 478.566 1281.11 477.765 1281.11 476.464V476.458H1287.06V475.793C1287.06 472.827 1285.26 471.361 1282.95 471.361C1280.39 471.361 1278.72 473.185 1278.72 475.878C1278.72 478.645 1280.36 480.373 1283.05 480.373ZM1281.11 474.958C1281.17 473.964 1281.92 473.168 1282.99 473.168C1284.05 473.168 1284.77 473.918 1284.78 474.958H1281.11ZM1292.58 480.373C1294.9 480.373 1296.36 479.009 1296.48 477.003H1294.19C1294.05 477.935 1293.44 478.458 1292.61 478.458C1291.48 478.458 1290.74 477.509 1290.74 475.839C1290.74 474.191 1291.48 473.248 1292.61 473.248C1293.49 473.248 1294.06 473.833 1294.19 474.702H1296.48C1296.38 472.685 1294.85 471.361 1292.57 471.361C1289.92 471.361 1288.28 473.197 1288.28 475.873C1288.28 478.526 1289.89 480.373 1292.58 480.373ZM1302.67 471.475H1301.03V469.384H1298.61V471.475H1297.41V473.293H1298.61V477.839C1298.6 479.549 1299.76 480.395 1301.52 480.322C1302.14 480.299 1302.58 480.174 1302.83 480.094L1302.45 478.293C1302.33 478.316 1302.07 478.373 1301.85 478.373C1301.36 478.373 1301.03 478.191 1301.03 477.52V473.293H1302.67V471.475ZM1315.21 473.964C1314.99 472.356 1313.7 471.361 1311.49 471.361C1309.26 471.361 1307.79 472.395 1307.8 474.077C1307.79 475.384 1308.61 476.231 1310.32 476.572L1311.83 476.873C1312.59 477.026 1312.94 477.305 1312.95 477.742C1312.94 478.259 1312.38 478.628 1311.53 478.628C1310.67 478.628 1310.09 478.259 1309.94 477.549L1307.56 477.674C1307.79 479.344 1309.21 480.373 1311.52 480.373C1313.78 480.373 1315.4 479.219 1315.41 477.498C1315.4 476.236 1314.58 475.481 1312.89 475.134L1311.31 474.816C1310.49 474.64 1310.19 474.361 1310.2 473.941C1310.19 473.418 1310.78 473.077 1311.53 473.077C1312.38 473.077 1312.88 473.537 1312.99 474.1L1315.21 473.964ZM1321.58 471.475H1319.93V469.384H1317.51V471.475H1316.32V473.293H1317.51V477.839C1317.5 479.549 1318.67 480.395 1320.42 480.322C1321.05 480.299 1321.49 480.174 1321.73 480.094L1321.35 478.293C1321.23 478.316 1320.98 478.373 1320.75 478.373C1320.27 478.373 1319.93 478.191 1319.93 477.52V473.293H1321.58V471.475ZM1323.15 480.202H1325.57V475.265C1325.57 474.191 1326.36 473.452 1327.43 473.452C1327.76 473.452 1328.22 473.509 1328.45 473.583V471.435C1328.23 471.384 1327.93 471.35 1327.69 471.35C1326.71 471.35 1325.91 471.918 1325.59 472.998H1325.5V471.475H1323.15V480.202ZM1333.27 480.373C1335.43 480.373 1336.88 479.322 1337.22 477.702L1334.99 477.555C1334.74 478.219 1334.12 478.566 1333.31 478.566C1332.1 478.566 1331.33 477.765 1331.33 476.464V476.458H1337.28V475.793C1337.28 472.827 1335.48 471.361 1333.17 471.361C1330.61 471.361 1328.94 473.185 1328.94 475.878C1328.94 478.645 1330.58 480.373 1333.27 480.373ZM1331.33 474.958C1331.38 473.964 1332.14 473.168 1333.21 473.168C1334.26 473.168 1334.99 473.918 1335 474.958H1331.33ZM1346.12 473.964C1345.9 472.356 1344.61 471.361 1342.4 471.361C1340.17 471.361 1338.7 472.395 1338.7 474.077C1338.7 475.384 1339.52 476.231 1341.22 476.572L1342.74 476.873C1343.5 477.026 1343.84 477.305 1343.86 477.742C1343.84 478.259 1343.28 478.628 1342.44 478.628C1341.57 478.628 1341 478.259 1340.85 477.549L1338.47 477.674C1338.7 479.344 1340.12 480.373 1342.43 480.373C1344.69 480.373 1346.31 479.219 1346.32 477.498C1346.31 476.236 1345.49 475.481 1343.79 475.134L1342.21 474.816C1341.4 474.64 1341.1 474.361 1341.11 473.941C1341.1 473.418 1341.69 473.077 1342.44 473.077C1343.28 473.077 1343.78 473.537 1343.9 474.1L1346.12 473.964ZM1355.1 473.964C1354.89 472.356 1353.59 471.361 1351.39 471.361C1349.15 471.361 1347.68 472.395 1347.69 474.077C1347.68 475.384 1348.5 476.231 1350.21 476.572L1351.72 476.873C1352.48 477.026 1352.83 477.305 1352.84 477.742C1352.83 478.259 1352.27 478.628 1351.42 478.628C1350.56 478.628 1349.98 478.259 1349.83 477.549L1347.45 477.674C1347.68 479.344 1349.1 480.373 1351.41 480.373C1353.68 480.373 1355.29 479.219 1355.3 477.498C1355.29 476.236 1354.47 475.481 1352.78 475.134L1351.2 474.816C1350.39 474.64 1350.08 474.361 1350.09 473.941C1350.08 473.418 1350.68 473.077 1351.43 473.077C1352.27 473.077 1352.77 473.537 1352.89 474.1L1355.1 473.964ZM1359.45 478.611H1357.45L1357.43 479.248C1357.36 480.793 1356.92 482.378 1356.75 483.043H1358.32C1358.59 482.356 1359.24 480.742 1359.39 479.236L1359.45 478.611ZM1369.52 471.475H1367.78V470.89C1367.78 470.299 1368.02 469.952 1368.73 469.952C1369.02 469.952 1369.32 470.015 1369.51 470.077L1369.94 468.259C1369.64 468.168 1368.97 468.02 1368.23 468.02C1366.59 468.02 1365.36 468.947 1365.36 470.844V471.475H1364.13V473.293H1365.36V480.202H1367.78V473.293H1369.52V471.475ZM1371 480.202H1373.42V475.265C1373.42 474.191 1374.2 473.452 1375.27 473.452C1375.6 473.452 1376.06 473.509 1376.29 473.583V471.435C1376.08 471.384 1375.77 471.35 1375.53 471.35C1374.55 471.35 1373.75 471.918 1373.43 472.998H1373.34V471.475H1371V480.202ZM1383.14 476.486C1383.15 477.657 1382.34 478.27 1381.47 478.27C1380.56 478.27 1379.97 477.628 1379.96 476.6V471.475H1377.54V477.032C1377.55 479.072 1378.74 480.316 1380.5 480.316C1381.81 480.316 1382.75 479.64 1383.15 478.617H1383.24V480.202H1385.56V471.475H1383.14V476.486ZM1394.76 473.964C1394.54 472.356 1393.25 471.361 1391.04 471.361C1388.81 471.361 1387.34 472.395 1387.34 474.077C1387.34 475.384 1388.16 476.231 1389.87 476.572L1391.38 476.873C1392.14 477.026 1392.48 477.305 1392.5 477.742C1392.48 478.259 1391.92 478.628 1391.08 478.628C1390.21 478.628 1389.64 478.259 1389.49 477.549L1387.11 477.674C1387.34 479.344 1388.76 480.373 1391.07 480.373C1393.33 480.373 1394.95 479.219 1394.96 477.498C1394.95 476.236 1394.13 475.481 1392.43 475.134L1390.85 474.816C1390.04 474.64 1389.74 474.361 1389.75 473.941C1389.74 473.418 1390.33 473.077 1391.08 473.077C1391.92 473.077 1392.42 473.537 1392.54 474.1L1394.76 473.964ZM1401.12 471.475H1399.48V469.384H1397.06V471.475H1395.87V473.293H1397.06V477.839C1397.05 479.549 1398.21 480.395 1399.97 480.322C1400.59 480.299 1401.04 480.174 1401.28 480.094L1400.9 478.293C1400.78 478.316 1400.53 478.373 1400.3 478.373C1399.82 478.373 1399.48 478.191 1399.48 477.52V473.293H1401.12V471.475ZM1402.7 480.202H1405.12V475.265C1405.12 474.191 1405.9 473.452 1406.97 473.452C1407.31 473.452 1407.77 473.509 1407.99 473.583V471.435C1407.78 471.384 1407.48 471.35 1407.23 471.35C1406.26 471.35 1405.45 471.918 1405.14 472.998H1405.05V471.475H1402.7V480.202ZM1411.48 480.367C1412.77 480.367 1413.61 479.805 1414.04 478.992H1414.1V480.202H1416.4V474.316C1416.4 472.236 1414.64 471.361 1412.7 471.361C1410.6 471.361 1409.23 472.361 1408.89 473.952L1411.13 474.134C1411.3 473.555 1411.81 473.128 1412.68 473.128C1413.51 473.128 1413.98 473.543 1413.98 474.259V474.293C1413.98 474.856 1413.38 474.93 1411.87 475.077C1410.14 475.236 1408.59 475.816 1408.59 477.765C1408.59 479.492 1409.82 480.367 1411.48 480.367ZM1412.18 478.697C1411.43 478.697 1410.9 478.35 1410.9 477.685C1410.9 477.003 1411.46 476.668 1412.31 476.549C1412.84 476.475 1413.71 476.35 1414 476.157V477.083C1414 477.998 1413.24 478.697 1412.18 478.697ZM1422.92 471.475H1421.28V469.384H1418.86V471.475H1417.66V473.293H1418.86V477.839C1418.85 479.549 1420.01 480.395 1421.77 480.322C1422.39 480.299 1422.83 480.174 1423.08 480.094L1422.7 478.293C1422.58 478.316 1422.32 478.373 1422.1 478.373C1421.61 478.373 1421.28 478.191 1421.28 477.52V473.293H1422.92V471.475ZM1424.5 480.202H1426.92V471.475H1424.5V480.202ZM1425.71 470.35C1426.43 470.35 1427.02 469.799 1427.02 469.123C1427.02 468.452 1426.43 467.901 1425.71 467.901C1425 467.901 1424.41 468.452 1424.41 469.123C1424.41 469.799 1425 470.35 1425.71 470.35ZM1432.8 480.373C1435.45 480.373 1437.09 478.56 1437.09 475.873C1437.09 473.168 1435.45 471.361 1432.8 471.361C1430.15 471.361 1428.5 473.168 1428.5 475.873C1428.5 478.56 1430.15 480.373 1432.8 480.373ZM1432.81 478.498C1431.59 478.498 1430.96 477.378 1430.96 475.856C1430.96 474.333 1431.59 473.208 1432.81 473.208C1434.01 473.208 1434.63 474.333 1434.63 475.856C1434.63 477.378 1434.01 478.498 1432.81 478.498ZM1441.09 475.157C1441.09 474.032 1441.76 473.373 1442.74 473.373C1443.71 473.373 1444.3 474.009 1444.29 475.077V480.202H1446.71V474.645C1446.71 472.611 1445.52 471.361 1443.7 471.361C1442.41 471.361 1441.47 471.998 1441.08 473.015H1440.97V471.475H1438.67V480.202H1441.09V475.157ZM1455.88 473.964C1455.67 472.356 1454.37 471.361 1452.17 471.361C1449.93 471.361 1448.46 472.395 1448.47 474.077C1448.46 475.384 1449.29 476.231 1450.99 476.572L1452.5 476.873C1453.26 477.026 1453.61 477.305 1453.62 477.742C1453.61 478.259 1453.05 478.628 1452.2 478.628C1451.34 478.628 1450.76 478.259 1450.62 477.549L1448.23 477.674C1448.46 479.344 1449.88 480.373 1452.2 480.373C1454.46 480.373 1456.08 479.219 1456.08 477.498C1456.08 476.236 1455.25 475.481 1453.56 475.134L1451.98 474.816C1451.17 474.64 1450.87 474.361 1450.87 473.941C1450.87 473.418 1451.46 473.077 1452.21 473.077C1453.05 473.077 1453.55 473.537 1453.67 474.1L1455.88 473.964ZM1460.24 478.611H1458.24L1458.21 479.248C1458.14 480.793 1457.7 482.378 1457.53 483.043H1459.1C1459.37 482.356 1460.02 480.742 1460.17 479.236L1460.24 478.611ZM1468.09 480.367C1469.38 480.367 1470.22 479.805 1470.65 478.992H1470.71V480.202H1473.01V474.316C1473.01 472.236 1471.25 471.361 1469.3 471.361C1467.21 471.361 1465.84 472.361 1465.5 473.952L1467.74 474.134C1467.91 473.555 1468.42 473.128 1469.29 473.128C1470.12 473.128 1470.59 473.543 1470.59 474.259V474.293C1470.59 474.856 1469.99 474.93 1468.47 475.077C1466.75 475.236 1465.2 475.816 1465.2 477.765C1465.2 479.492 1466.43 480.367 1468.09 480.367ZM1468.79 478.697C1468.04 478.697 1467.51 478.35 1467.51 477.685C1467.51 477.003 1468.07 476.668 1468.92 476.549C1469.45 476.475 1470.32 476.35 1470.61 476.157V477.083C1470.61 477.998 1469.85 478.697 1468.79 478.697ZM1477.31 475.157C1477.31 474.032 1477.98 473.373 1478.96 473.373C1479.93 473.373 1480.52 474.009 1480.51 475.077V480.202H1482.93V474.645C1482.93 472.611 1481.74 471.361 1479.92 471.361C1478.63 471.361 1477.69 471.998 1477.3 473.015H1477.19V471.475H1474.89V480.202H1477.31V475.157ZM1488.06 480.344C1489.46 480.344 1490.2 479.532 1490.53 478.805H1490.64V480.202H1493.02V468.566H1490.61V472.941H1490.53C1490.21 472.231 1489.51 471.361 1488.05 471.361C1486.14 471.361 1484.52 472.85 1484.52 475.85C1484.52 478.77 1486.07 480.344 1488.06 480.344ZM1488.82 478.418C1487.64 478.418 1486.99 477.361 1486.99 475.839C1486.99 474.327 1487.62 473.287 1488.82 473.287C1490 473.287 1490.66 474.282 1490.66 475.839C1490.66 477.395 1489.99 478.418 1488.82 478.418ZM1132.81 499.202H1135.23V494.265C1135.23 493.191 1136.01 492.452 1137.08 492.452C1137.42 492.452 1137.88 492.509 1138.1 492.583V490.435C1137.89 490.384 1137.59 490.35 1137.34 490.35C1136.37 490.35 1135.56 490.918 1135.25 491.998H1135.16V490.475H1132.81V499.202ZM1142.93 499.373C1145.09 499.373 1146.54 498.322 1146.88 496.702L1144.64 496.555C1144.4 497.219 1143.77 497.566 1142.97 497.566C1141.76 497.566 1140.99 496.765 1140.99 495.464V495.458H1146.93V494.793C1146.93 491.827 1145.14 490.361 1142.83 490.361C1140.26 490.361 1138.6 492.185 1138.6 494.878C1138.6 497.645 1140.24 499.373 1142.93 499.373ZM1140.99 493.958C1141.04 492.964 1141.8 492.168 1142.87 492.168C1143.92 492.168 1144.65 492.918 1144.65 493.958H1140.99ZM1148.51 499.202H1150.93V493.964C1150.93 492.998 1151.55 492.356 1152.35 492.356C1153.15 492.356 1153.68 492.901 1153.68 493.759V499.202H1156.03V493.873C1156.03 492.969 1156.55 492.356 1157.43 492.356C1158.2 492.356 1158.78 492.839 1158.78 493.81V499.202H1161.19V493.333C1161.19 491.441 1160.07 490.361 1158.44 490.361C1157.17 490.361 1156.17 491.015 1155.81 492.015H1155.72C1155.44 491.003 1154.55 490.361 1153.35 490.361C1152.18 490.361 1151.28 490.986 1150.92 492.015H1150.82V490.475H1148.51V499.202ZM1163.11 499.202H1165.53V490.475H1163.11V499.202ZM1164.32 489.35C1165.04 489.35 1165.63 488.799 1165.63 488.123C1165.63 487.452 1165.04 486.901 1164.32 486.901C1163.61 486.901 1163.01 487.452 1163.01 488.123C1163.01 488.799 1163.61 489.35 1164.32 489.35ZM1169.89 494.157C1169.89 493.032 1170.56 492.373 1171.54 492.373C1172.51 492.373 1173.1 493.009 1173.09 494.077V499.202H1175.51V493.645C1175.51 491.611 1174.32 490.361 1172.5 490.361C1171.2 490.361 1170.27 490.998 1169.87 492.015H1169.77V490.475H1167.46V499.202H1169.89V494.157ZM1180.63 499.344C1182.04 499.344 1182.78 498.532 1183.11 497.805H1183.21V499.202H1185.6V487.566H1183.19V491.941H1183.11C1182.79 491.231 1182.09 490.361 1180.63 490.361C1178.71 490.361 1177.09 491.85 1177.09 494.85C1177.09 497.77 1178.65 499.344 1180.63 499.344ZM1181.4 497.418C1180.21 497.418 1179.57 496.361 1179.57 494.839C1179.57 493.327 1180.2 492.287 1181.4 492.287C1182.58 492.287 1183.24 493.282 1183.24 494.839C1183.24 496.395 1182.57 497.418 1181.4 497.418ZM1192.79 502.475C1194.59 502.475 1195.54 501.555 1196.04 500.145L1199.43 490.486L1196.87 490.475L1195.04 496.884H1194.95L1193.15 490.475H1190.6L1193.73 499.452L1193.59 499.822C1193.27 500.64 1192.66 500.68 1191.81 500.418L1191.26 502.225C1191.61 502.373 1192.17 502.475 1192.79 502.475ZM1204.31 499.373C1206.96 499.373 1208.61 497.56 1208.61 494.873C1208.61 492.168 1206.96 490.361 1204.31 490.361C1201.67 490.361 1200.02 492.168 1200.02 494.873C1200.02 497.56 1201.67 499.373 1204.31 499.373ZM1204.33 497.498C1203.1 497.498 1202.48 496.378 1202.48 494.856C1202.48 493.333 1203.1 492.208 1204.33 492.208C1205.52 492.208 1206.15 493.333 1206.15 494.856C1206.15 496.378 1205.52 497.498 1204.33 497.498ZM1215.78 495.486C1215.79 496.657 1214.98 497.27 1214.12 497.27C1213.2 497.27 1212.61 496.628 1212.6 495.6V490.475H1210.18V496.032C1210.19 498.072 1211.38 499.316 1213.14 499.316C1214.45 499.316 1215.39 498.64 1215.79 497.617H1215.88V499.202H1218.2V490.475H1215.78V495.486ZM1228.48 490.475H1226.84V488.384H1224.42V490.475H1223.23V492.293H1224.42V496.839C1224.41 498.549 1225.57 499.395 1227.33 499.322C1227.95 499.299 1228.4 499.174 1228.64 499.094L1228.26 497.293C1228.14 497.316 1227.89 497.373 1227.66 497.373C1227.18 497.373 1226.84 497.191 1226.84 496.52V492.293H1228.48V490.475ZM1233.91 499.373C1236.56 499.373 1238.2 497.56 1238.2 494.873C1238.2 492.168 1236.56 490.361 1233.91 490.361C1231.26 490.361 1229.61 492.168 1229.61 494.873C1229.61 497.56 1231.26 499.373 1233.91 499.373ZM1233.92 497.498C1232.7 497.498 1232.07 496.378 1232.07 494.856C1232.07 493.333 1232.7 492.208 1233.92 492.208C1235.12 492.208 1235.74 493.333 1235.74 494.856C1235.74 496.378 1235.12 497.498 1233.92 497.498ZM1248.12 490.475H1246.48V488.384H1244.06V490.475H1242.87V492.293H1244.06V496.839C1244.05 498.549 1245.21 499.395 1246.97 499.322C1247.59 499.299 1248.04 499.174 1248.28 499.094L1247.9 497.293C1247.78 497.316 1247.53 497.373 1247.3 497.373C1246.82 497.373 1246.48 497.191 1246.48 496.52V492.293H1248.12V490.475ZM1252.19 499.367C1253.48 499.367 1254.31 498.805 1254.74 497.992H1254.81V499.202H1257.1V493.316C1257.1 491.236 1255.34 490.361 1253.4 490.361C1251.31 490.361 1249.93 491.361 1249.6 492.952L1251.84 493.134C1252 492.555 1252.52 492.128 1253.39 492.128C1254.21 492.128 1254.68 492.543 1254.68 493.259V493.293C1254.68 493.856 1254.09 493.93 1252.57 494.077C1250.84 494.236 1249.29 494.816 1249.29 496.765C1249.29 498.492 1250.52 499.367 1252.19 499.367ZM1252.88 497.697C1252.14 497.697 1251.6 497.35 1251.6 496.685C1251.6 496.003 1252.17 495.668 1253.02 495.549C1253.55 495.475 1254.41 495.35 1254.7 495.157V496.083C1254.7 496.998 1253.94 497.697 1252.88 497.697ZM1258.98 499.202H1261.4V496.43L1262.05 495.685L1264.44 499.202H1267.27L1263.87 494.253L1267.11 490.475H1264.33L1261.53 493.787H1261.4V487.566H1258.98V499.202ZM1271.91 499.373C1274.07 499.373 1275.52 498.322 1275.87 496.702L1273.63 496.555C1273.38 497.219 1272.76 497.566 1271.95 497.566C1270.74 497.566 1269.97 496.765 1269.97 495.464V495.458H1275.92V494.793C1275.92 491.827 1274.12 490.361 1271.81 490.361C1269.25 490.361 1267.58 492.185 1267.58 494.878C1267.58 497.645 1269.22 499.373 1271.91 499.373ZM1269.97 493.958C1270.02 492.964 1270.78 492.168 1271.85 492.168C1272.91 492.168 1273.63 492.918 1273.64 493.958H1269.97ZM1281.24 499.202H1283.63V497.805H1283.74C1284.07 498.532 1284.81 499.344 1286.22 499.344C1288.2 499.344 1289.76 497.77 1289.76 494.85C1289.76 491.85 1288.14 490.361 1286.22 490.361C1284.76 490.361 1284.06 491.231 1283.74 491.941H1283.67V487.566H1281.24V499.202ZM1283.61 494.839C1283.61 493.282 1284.27 492.287 1285.45 492.287C1286.65 492.287 1287.28 493.327 1287.28 494.839C1287.28 496.361 1286.64 497.418 1285.45 497.418C1284.28 497.418 1283.61 496.395 1283.61 494.839ZM1291.37 499.202H1293.79V494.265C1293.79 493.191 1294.58 492.452 1295.64 492.452C1295.98 492.452 1296.44 492.509 1296.67 492.583V490.435C1296.45 490.384 1296.15 490.35 1295.91 490.35C1294.93 490.35 1294.13 490.918 1293.81 491.998H1293.72V490.475H1291.37V499.202ZM1301.49 499.373C1303.65 499.373 1305.1 498.322 1305.44 496.702L1303.2 496.555C1302.96 497.219 1302.34 497.566 1301.53 497.566C1300.32 497.566 1299.55 496.765 1299.55 495.464V495.458H1305.49V494.793C1305.49 491.827 1303.7 490.361 1301.39 490.361C1298.82 490.361 1297.16 492.185 1297.16 494.878C1297.16 497.645 1298.8 499.373 1301.49 499.373ZM1299.55 493.958C1299.6 492.964 1300.36 492.168 1301.43 492.168C1302.48 492.168 1303.21 492.918 1303.22 493.958H1299.55ZM1309.56 499.367C1310.85 499.367 1311.69 498.805 1312.11 497.992H1312.18V499.202H1314.48V493.316C1314.48 491.236 1312.72 490.361 1310.77 490.361C1308.68 490.361 1307.31 491.361 1306.97 492.952L1309.21 493.134C1309.38 492.555 1309.89 492.128 1310.76 492.128C1311.59 492.128 1312.06 492.543 1312.06 493.259V493.293C1312.06 493.856 1311.46 493.93 1309.94 494.077C1308.22 494.236 1306.67 494.816 1306.67 496.765C1306.67 498.492 1307.9 499.367 1309.56 499.367ZM1310.26 497.697C1309.51 497.697 1308.98 497.35 1308.98 496.685C1308.98 496.003 1309.54 495.668 1310.39 495.549C1310.92 495.475 1311.78 495.35 1312.07 495.157V496.083C1312.07 496.998 1311.32 497.697 1310.26 497.697ZM1316.36 499.202H1318.78V496.43L1319.43 495.685L1321.81 499.202H1324.65L1321.24 494.253L1324.48 490.475H1321.7L1318.91 493.787H1318.78V487.566H1316.36V499.202ZM1332.93 492.964C1332.71 491.356 1331.42 490.361 1329.21 490.361C1326.98 490.361 1325.51 491.395 1325.51 493.077C1325.51 494.384 1326.33 495.231 1328.04 495.572L1329.55 495.873C1330.31 496.026 1330.66 496.305 1330.67 496.742C1330.66 497.259 1330.09 497.628 1329.25 497.628C1328.38 497.628 1327.81 497.259 1327.66 496.549L1325.28 496.674C1325.51 498.344 1326.93 499.373 1329.24 499.373C1331.5 499.373 1333.12 498.219 1333.13 496.498C1333.12 495.236 1332.3 494.481 1330.61 494.134L1329.03 493.816C1328.21 493.64 1327.91 493.361 1327.92 492.941C1327.91 492.418 1328.5 492.077 1329.25 492.077C1330.09 492.077 1330.59 492.537 1330.71 493.1L1332.93 492.964ZM1336.07 499.35C1336.79 499.35 1337.43 498.742 1337.43 497.986C1337.43 497.242 1336.79 496.634 1336.07 496.634C1335.32 496.634 1334.7 497.242 1334.7 497.986C1334.7 498.742 1335.32 499.35 1336.07 499.35Z" fill="white"/>
<path d="M176 952.375C167.414 952.375 159.179 948.964 153.107 942.893C147.036 936.821 143.625 928.586 143.625 920C143.625 911.414 147.036 903.179 153.107 897.107C159.179 891.036 167.414 887.625 176 887.625C184.586 887.625 192.821 891.036 198.893 897.107C204.964 903.179 208.375 911.414 208.375 920C208.375 928.586 204.964 936.821 198.893 942.893C192.821 948.964 184.586 952.375 176 952.375V952.375ZM176 957C185.813 957 195.224 953.102 202.163 946.163C209.102 939.224 213 929.813 213 920C213 910.187 209.102 900.776 202.163 893.837C195.224 886.898 185.813 883 176 883C166.187 883 156.776 886.898 149.837 893.837C142.898 900.776 139 910.187 139 920C139 929.813 142.898 939.224 149.837 946.163C156.776 953.102 166.187 957 176 957V957Z" fill="black"/>
<path d="M158.818 927.247C159.349 926.941 159.98 926.858 160.573 927.016C161.165 927.175 161.67 927.563 161.977 928.094C163.397 930.556 165.441 932.6 167.903 934.021C170.365 935.442 173.158 936.189 176 936.187C181.989 936.187 187.22 932.936 190.023 928.094C190.332 927.567 190.837 927.184 191.427 927.028C192.017 926.872 192.645 926.955 193.174 927.261C193.703 927.566 194.09 928.068 194.25 928.657C194.41 929.247 194.33 929.875 194.028 930.406C192.202 933.571 189.574 936.2 186.409 938.026C183.244 939.853 179.654 940.814 176 940.812C172.346 940.813 168.756 939.852 165.591 938.025C162.427 936.198 159.799 933.571 157.972 930.406C157.665 929.875 157.582 929.244 157.741 928.652C157.9 928.059 158.287 927.554 158.818 927.247ZM171.375 913.062C171.375 916.892 169.303 920 166.75 920C164.197 920 162.125 916.892 162.125 913.062C162.125 909.233 164.197 906.125 166.75 906.125C169.303 906.125 171.375 909.233 171.375 913.062ZM189.875 913.062C189.875 916.892 187.803 920 185.25 920C182.697 920 180.625 916.892 180.625 913.062C180.625 909.233 182.697 906.125 185.25 906.125C187.803 906.125 189.875 909.233 189.875 913.062Z" fill="black"/>
<path d="M264.964 923.184C264.964 921.062 265.428 919.166 266.355 917.497C267.282 915.808 268.549 914.5 270.156 913.572C271.763 912.625 273.555 912.151 275.533 912.151C277.944 912.151 280.004 912.728 281.714 913.882C283.445 915.015 284.702 916.622 285.484 918.703H282.95C282.332 917.24 281.384 916.096 280.107 915.272C278.85 914.448 277.326 914.036 275.533 914.036C273.947 914.036 272.515 914.407 271.238 915.149C269.981 915.89 268.992 916.962 268.271 918.363C267.55 919.743 267.189 921.35 267.189 923.184C267.189 925.017 267.55 926.624 268.271 928.005C268.992 929.385 269.981 930.446 271.238 931.188C272.515 931.929 273.947 932.3 275.533 932.3C277.326 932.3 278.85 931.899 280.107 931.095C281.384 930.271 282.332 929.138 282.95 927.696H285.484C284.702 929.756 283.445 931.353 281.714 932.486C279.984 933.619 277.923 934.185 275.533 934.185C273.555 934.185 271.763 933.722 270.156 932.795C268.549 931.847 267.282 930.539 266.355 928.87C265.428 927.201 264.964 925.306 264.964 923.184ZM297.181 934.247C295.595 934.247 294.163 933.897 292.885 933.196C291.629 932.475 290.629 931.466 289.888 930.168C289.167 928.849 288.806 927.314 288.806 925.563C288.806 923.812 289.177 922.287 289.919 920.989C290.66 919.671 291.67 918.661 292.947 917.961C294.225 917.24 295.656 916.879 297.243 916.879C298.829 916.879 300.261 917.24 301.539 917.961C302.837 918.661 303.846 919.671 304.567 920.989C305.309 922.287 305.68 923.812 305.68 925.563C305.68 927.294 305.309 928.818 304.567 930.137C303.825 931.456 302.806 932.475 301.508 933.196C300.21 933.897 298.768 934.247 297.181 934.247ZM297.181 932.362C298.294 932.362 299.324 932.115 300.271 931.62C301.219 931.105 301.982 930.343 302.558 929.333C303.156 928.303 303.455 927.047 303.455 925.563C303.455 924.08 303.166 922.833 302.589 921.824C302.012 920.794 301.25 920.031 300.302 919.537C299.355 919.022 298.325 918.764 297.212 918.764C296.099 918.764 295.069 919.022 294.122 919.537C293.174 920.031 292.412 920.794 291.835 921.824C291.278 922.833 291 924.08 291 925.563C291 927.047 291.278 928.303 291.835 929.333C292.412 930.343 293.164 931.105 294.091 931.62C295.038 932.115 296.069 932.362 297.181 932.362ZM317.534 916.817C319.554 916.817 321.202 917.446 322.479 918.703C323.757 919.939 324.395 921.741 324.395 924.111V934H322.263V924.358C322.263 922.524 321.799 921.123 320.872 920.155C319.966 919.187 318.719 918.703 317.133 918.703C315.505 918.703 314.207 919.218 313.239 920.248C312.271 921.278 311.786 922.792 311.786 924.791V934H309.623V917.126H311.786V920C312.322 918.97 313.095 918.187 314.104 917.652C315.114 917.096 316.257 916.817 317.534 916.817ZM331.992 918.95V929.426C331.992 930.456 332.187 931.167 332.579 931.559C332.97 931.95 333.661 932.146 334.65 932.146H336.627V934H334.31C332.785 934 331.652 933.65 330.91 932.949C330.168 932.228 329.798 931.054 329.798 929.426V918.95H327.449V917.126H329.798V912.893H331.992V917.126H336.627V918.95H331.992ZM355.462 924.698C355.462 925.44 355.441 926.006 355.4 926.398H341.4C341.462 927.675 341.771 928.767 342.327 929.673C342.884 930.58 343.615 931.27 344.522 931.744C345.428 932.197 346.417 932.424 347.488 932.424C348.889 932.424 350.064 932.084 351.011 931.404C351.98 930.724 352.619 929.807 352.928 928.654H355.214C354.802 930.302 353.916 931.651 352.557 932.702C351.218 933.732 349.528 934.247 347.488 934.247C345.902 934.247 344.48 933.897 343.224 933.196C341.967 932.475 340.978 931.466 340.257 930.168C339.556 928.849 339.206 927.314 339.206 925.563C339.206 923.812 339.556 922.277 340.257 920.959C340.957 919.64 341.936 918.63 343.193 917.93C344.45 917.229 345.881 916.879 347.488 916.879C349.095 916.879 350.496 917.229 351.691 917.93C352.907 918.63 353.834 919.578 354.473 920.773C355.132 921.947 355.462 923.256 355.462 924.698ZM353.267 924.636C353.288 923.379 353.031 922.308 352.495 921.422C351.98 920.536 351.269 919.867 350.363 919.413C349.456 918.96 348.467 918.733 347.396 918.733C345.789 918.733 344.419 919.248 343.285 920.279C342.152 921.309 341.524 922.761 341.4 924.636H353.267ZM367.331 916.817C369.35 916.817 370.998 917.446 372.276 918.703C373.553 919.939 374.192 921.741 374.192 924.111V934H372.059V924.358C372.059 922.524 371.596 921.123 370.669 920.155C369.762 919.187 368.516 918.703 366.929 918.703C365.302 918.703 364.004 919.218 363.035 920.248C362.067 921.278 361.583 922.792 361.583 924.791V934H359.42V917.126H361.583V920C362.119 918.97 362.891 918.187 363.901 917.652C364.91 917.096 366.054 916.817 367.331 916.817ZM381.788 918.95V929.426C381.788 930.456 381.984 931.167 382.375 931.559C382.767 931.95 383.457 932.146 384.446 932.146H386.424V934H384.106C382.581 934 381.448 933.65 380.707 932.949C379.965 932.228 379.594 931.054 379.594 929.426V918.95H377.245V917.126H379.594V912.893H381.788V917.126H386.424V918.95H381.788Z" fill="black"/>
<defs>
<clipPath id="clip0_68:2">
<rect width="17" height="8" fill="white" transform="translate(318 866.5)"/>
</clipPath>
<clipPath id="clip1_68:2">
<rect width="15.4719" height="7.2809" fill="white" transform="translate(1117.28 464.264) rotate(90)"/>
</clipPath>
</defs>
</svg>
